<?xml version="1.0" encoding="utf-8"?>
<!-- Generator: Adobe Illustrator 23.0.4, SVG Export Plug-In . SVG Version: 6.00 Build 0)  -->
<svg version="1.1" id="Layer_1" xmlns="http://www.w3.org/2000/svg" xmlns:xlink="http://www.w3.org/1999/xlink" x="0px" y="0px"
	 viewBox="0 0 477.9 756.9" style="enable-background:new 0 0 477.9 756.9;" xml:space="preserve">
<style type="text/css">
	.st0{stroke:#000000;stroke-width:9;stroke-miterlimit:10;}
</style>
<title>Artboard 1</title>
<path class="st0" d="M208.6,248.3v60.3h69.7v-60.3h18.8v144.1h-18.8v-67.6h-69.7v67.6H190V248.3H208.6z"/>
<path class="st0" d="M184.4,510.7c13.1-2,26.3-3,39.6-3c26.7,0,45.8,6.2,58.4,18c12.8,11.8,20.3,28.4,20.3,51.8
	c0,23.5-7.3,42.8-20.8,56c-13.5,13.5-35.7,20.8-63.7,20.8c-11.3,0.1-22.6-0.5-33.8-1.7V510.7z M203,638.2c4.7,0.8,11.6,1.1,18.8,1.1
	c39.8,0,61.4-22.2,61.4-61.2c0.2-34-19-55.6-58.4-55.6c-7.3-0.1-14.6,0.5-21.8,1.9V638.2z"/>
<path class="st0" d="M469.2,749H7.1l1.6-487.5l65.9-77.8V62h71.2v48.2l93-103.2l229.8,248.4L469.2,749z M26.6,729.6h423.2
	l-0.6-466.7L239,35.7l-112.5,125V81.4H94v109.4l-65.9,77.9L26.6,729.6z"/>
<rect x="96.5" y="450.8" class="st0" width="276.6" height="9.7"/>
</svg>
