<svg id="Layer_1" data-name="Layer 1" xmlns="http://www.w3.org/2000/svg" viewBox="0 0 477.89 756.88"><defs><style>.cls-1{fill:#1d1d1b;}</style></defs><title>Artboard 1</title><path class="cls-1" d="M208.6,248.29v60.3h69.71v-60.3h18.82V392.42H278.31V324.84H208.6v67.58H190V248.29Z"/><path class="cls-1" d="M184.43,510.74a266.62,266.62,0,0,1,39.56-3c26.73,0,45.76,6.2,58.38,18,12.83,11.76,20.32,28.44,20.32,51.75,0,23.52-7.28,42.77-20.75,56-13.47,13.47-35.71,20.75-63.72,20.75a302.55,302.55,0,0,1-33.79-1.71ZM203,638.2c4.71.85,11.55,1.07,18.82,1.07,39.78,0,61.38-22.24,61.38-61.17.21-34-19-55.59-58.38-55.59A105.84,105.84,0,0,0,203,524.43Z"/><path class="cls-1" d="M469.2,749H7.14L8.73,261.49l65.88-77.83V62h71.18v48.18l93-103.25,229.84,248.4ZM26.59,729.57H449.78l-.57-466.66L239,35.67l-112.54,125V81.36H94v109.4L28.1,268.62Z"/><rect class="cls-1" x="96.49" y="450.83" width="276.58" height="9.69"/></svg>