<svg id="Layer_1" data-name="Layer 1" xmlns="http://www.w3.org/2000/svg" viewBox="0 0 477.9 756.9"><defs><style>.cls-1{fill:#444;stroke:#444;stroke-miterlimit:10;stroke-width:9px;}</style></defs><title>Artboard 1</title><path class="cls-1" d="M208.6,248.3v60.3h69.7V248.3h18.8V392.4H278.3V324.8H208.6v67.6H190V248.3Z"/><path class="cls-1" d="M184.4,510.7a262,262,0,0,1,39.6-3c26.7,0,45.8,6.2,58.4,18,12.8,11.8,20.3,28.4,20.3,51.8s-7.3,42.8-20.8,56c-13.5,13.5-35.7,20.8-63.7,20.8a293.16,293.16,0,0,1-33.8-1.7ZM203,638.2a124.13,124.13,0,0,0,18.8,1.1c39.8,0,61.4-22.2,61.4-61.2.2-34-19-55.6-58.4-55.6a106.48,106.48,0,0,0-21.8,1.9V638.2Z"/><path class="cls-1" d="M469.2,749H7.1L8.7,261.5l65.9-77.8V62h71.2v48.2L238.8,7,468.6,255.4ZM26.6,729.6H449.8l-.6-466.7L239,35.7l-112.5,125V81.4H94V190.8L28.1,268.7Z"/><rect class="cls-1" x="96.5" y="450.8" width="276.6" height="9.7"/></svg>